<?xml version="1.0"?>
<svg xmlns="http://www.w3.org/2000/svg" id="Layer_1" enable-background="new 0 0 512 512" height="170px" viewBox="0 0 512 512" width="170px" class=""><g><g><g><g><path d="m382.4 20.65v470.7c0 7.26-5.89 13.15-13.16 13.15h-260.68c-7.27 0-13.16-5.89-13.16-13.15v-470.7c0-7.26 5.89-13.15 13.16-13.15h260.68c7.27 0 13.16 5.89 13.16 13.15z" fill="#4fe8bc" data-original="#4FE8BC" class="" style="fill:#1CDF74" data-old_color="#4fe8bc"/><path d="m382.4 20.65v470.7c0 7.26-5.89 13.15-13.16 13.15h-260.68c-7.27 0-13.16-5.89-13.16-13.15v-7.93h237.84c11.44 0 20.7-9.26 20.7-20.69v-455.23h15.3c7.27 0 13.16 5.89 13.16 13.15z" fill="#17c6a5" data-original="#17C6A5" class="" style="fill:#17A959" data-old_color="#17c6a5"/><path d="m382.4 466.35v25c0 7.26-5.89 13.15-13.16 13.15h-260.68c-7.27 0-13.16-5.89-13.16-13.15v-25z" fill="#466175" data-original="#466175" class=""/><path d="m382.4 466.35v25c0 7.26-5.89 13.15-13.16 13.15h-260.68c-7.27 0-13.16-5.89-13.16-13.15v-7.93h237.84c10.2 0 18.67-7.37 20.38-17.07z" fill="#2d4859" data-original="#2D4859" class=""/><path d="m312.159 7.5-6.93 25.25c-1.81 6.61-7.82 11.19-14.67 11.19h-103.32c-6.85 0-12.86-4.58-14.67-11.19l-1.93-7.03-5-18.22z" fill="#466175" data-original="#466175" class=""/><path d="m312.159 7.5-6.93 25.25c-1.81 6.61-7.82 11.19-14.67 11.19h-103.32c-6.85 0-12.86-4.58-14.67-11.19l-1.93-7.03h102.92c5.2 0 9.76-3.48 11.13-8.49l2.67-9.73z" fill="#2d4859" data-original="#2D4859" class=""/></g></g><path d="m166.595 91h250v320h-250z" fill="#d9f9f8" data-original="#D9F9F8" class="" style="fill:#47C580" data-old_color="#d9f9f8"/><path d="m416.595 91v320h-250v-23.28h204.62c11.35 0 20.55-9.2 20.55-20.55v-276.17z" fill="#c1eaf4" data-original="#C1EAF4" class="active-path" style="fill:#72EBA9" data-old_color="#c1eaf4"/></g><g><path d="m382.403 433.196c-4.143 0-7.5 3.357-7.5 7.5v18.149h-204.573c-4.143 0-7.5 3.357-7.5 7.5s3.357 7.5 7.5 7.5h204.573v17.5c0 3.118-2.538 5.654-5.657 5.654h-260.687c-3.119 0-5.656-2.536-5.656-5.654v-17.5h31.853c4.143 0 7.5-3.357 7.5-7.5s-3.357-7.5-7.5-7.5h-31.853v-438.191c0-3.118 2.537-5.654 5.656-5.654h51.362l5.415 19.73c2.698 9.837 11.708 16.708 21.909 16.708h103.315c10.201 0 19.211-6.871 21.909-16.707l5.416-19.731h51.361c3.119 0 5.657 2.536 5.657 5.654v41.011c0 4.143 3.357 7.5 7.5 7.5s7.5-3.357 7.5-7.5v-41.011c0-11.388-9.267-20.654-20.657-20.654h-260.687c-11.39 0-20.656 9.266-20.656 20.654v470.691c0 11.389 9.267 20.654 20.656 20.654h260.687c11.391 0 20.657-9.266 20.657-20.654v-50.649c0-4.142-3.358-7.5-7.5-7.5zm-80.073-418.196-4.325 15.762c-.917 3.343-3.979 5.677-7.444 5.677h-103.315c-3.466 0-6.527-2.334-7.444-5.678l-4.326-15.761z" data-original="#000000" class="" style="fill:#000000"/><path d="m416.597 83.5h-250c-4.143 0-7.5 3.357-7.5 7.5v64.948c0 4.143 3.357 7.5 7.5 7.5s7.5-3.357 7.5-7.5v-57.448h235v305h-235v-212.661c0-4.143-3.357-7.5-7.5-7.5s-7.5 3.357-7.5 7.5v220.161c0 4.143 3.357 7.5 7.5 7.5h250c4.143 0 7.5-3.357 7.5-7.5v-320c0-4.143-3.357-7.5-7.5-7.5z" data-original="#000000" class="" style="fill:#000000"/><path d="m338.471 122.811h-93.747c-4.143 0-7.5 3.357-7.5 7.5s3.357 7.5 7.5 7.5h93.747c4.143 0 7.5-3.357 7.5-7.5s-3.357-7.5-7.5-7.5z" data-original="#000000" class="" style="fill:#000000"/><path d="m293.078 178.484c-16.148 0-29.627 12.107-31.352 28.164l-7.694 71.628c-.442 4.118 2.537 7.815 6.656 8.258 4.107.443 7.815-2.537 8.258-6.656l4.281-39.848h39.702l4.281 39.848c.413 3.847 3.665 6.7 7.448 6.7.267 0 .538-.015.81-.044 4.119-.442 7.099-4.14 6.656-8.258l-7.694-71.628c-1.726-16.056-15.204-28.164-31.352-28.164zm-18.24 46.546 1.802-16.78c.904-8.418 7.971-14.766 16.438-14.766 8.466 0 15.532 6.348 16.437 14.766l1.802 16.78z" data-original="#000000" class="" style="fill:#000000"/><path d="m352.023 159.07c-4.143 0-7.5 3.357-7.5 7.5v7.319h-7.319c-4.143 0-7.5 3.357-7.5 7.5s3.357 7.5 7.5 7.5h7.319v7.319c0 4.143 3.357 7.5 7.5 7.5s7.5-3.357 7.5-7.5v-7.319h7.319c4.143 0 7.5-3.357 7.5-7.5s-3.357-7.5-7.5-7.5h-7.319v-7.319c0-4.142-3.357-7.5-7.5-7.5z" data-original="#000000" class="" style="fill:#000000"/><path d="m244.61 342.073h93.976c4.143 0 7.5-3.357 7.5-7.5s-3.357-7.5-7.5-7.5h-93.976c-4.143 0-7.5 3.357-7.5 7.5s3.357 7.5 7.5 7.5z" data-original="#000000" class="" style="fill:#000000"/><path d="m257.259 364.189c-4.143 0-7.5 3.357-7.5 7.5s3.357 7.5 7.5 7.5h68.677c4.143 0 7.5-3.357 7.5-7.5s-3.357-7.5-7.5-7.5z" data-original="#000000" class="" style="fill:#000000"/></g></g> </svg>
